<svg width="29" height="40" viewBox="0 0 29 40" fill="none" xmlns="http://www.w3.org/2000/svg">
<path d="M14.5 0C6.50481 0 0 6.33962 0 14.137C0 21.5954 13.0463 38.8446 13.597 39.5701C13.6995 39.703 13.8349 39.8114 13.992 39.8862C14.1491 39.9609 14.3233 40 14.5 40C14.6767 40 14.8509 39.9609 15.008 39.8862C15.1651 39.8114 15.3005 39.703 15.403 39.5701C15.9684 38.8446 29 21.6225 29 14.137C29 6.33962 22.4952 0 14.5 0ZM7.72354 14.137C8.09063 5.84465 20.9387 5.84465 21.2765 14.137C20.9094 22.4361 8.09063 22.4294 7.72354 14.137Z" fill="#ED7D23"/>
</svg>
