<svg width="40" height="40" viewBox="0 0 40 40" fill="none" xmlns="http://www.w3.org/2000/svg">
<path fill-rule="evenodd" clip-rule="evenodd" d="M32.0491 25.4334L27.8158 24.9501C26.7991 24.8334 25.7991 25.1834 25.0824 25.9001L22.0158 28.9667C17.2991 26.5667 13.4324 22.7167 11.0324 17.9834L14.1158 14.9001C14.8324 14.1834 15.1824 13.1834 15.0658 12.1667L14.5824 7.96672C14.3824 6.28339 12.9658 5.01672 11.2658 5.01672H8.38243C6.49909 5.01672 4.93242 6.58339 5.04909 8.46672C5.93242 22.7001 17.3158 34.0667 31.5324 34.9501C33.4158 35.0667 34.9824 33.5001 34.9824 31.6167V28.7334C34.9991 27.0501 33.7324 25.6334 32.0491 25.4334Z" fill="#ED7D23"/>
</svg>
