<svg width="39" height="36" viewBox="0 0 39 36" fill="none" xmlns="http://www.w3.org/2000/svg">
<path d="M13.1587 34.2647H13.9087V33.5147V30.201C13.9087 30.1626 13.9186 30.1368 13.9267 30.1225H24.1426C24.1512 30.1369 24.1616 30.1628 24.1616 30.201V33.5147V34.2647H24.9116H31.5057V35.25H6.56075V34.2647H13.1587ZM2.51096 0.75H35.5554C36.5079 0.75 37.2832 1.52442 37.2832 2.48531V25.6854C37.2832 26.6463 36.5079 27.4207 35.5554 27.4207H2.51096C1.55855 27.4207 0.783203 26.6463 0.783203 25.6854V2.48531C0.783203 1.52442 1.55855 0.75 2.51096 0.75ZM34.7295 26.4354C35.5973 26.4354 36.3054 25.7303 36.3054 24.857V3.31374C36.3054 2.44274 35.6034 1.73531 34.7295 1.73531H3.33688C2.46296 1.73531 1.76096 2.44274 1.76096 3.31374V24.857C1.76096 25.728 2.46296 26.4354 3.33688 26.4354H34.7295Z" stroke="white" stroke-width="1.5"/>
<path d="M8.43425 16.6307L8.43425 16.6307L8.43627 16.6278C8.77862 16.1302 9.15245 15.7266 9.55575 15.403C9.95638 15.0815 10.3977 14.8327 10.8838 14.6496C11.363 14.473 11.8406 14.3857 12.3202 14.3857C13.7733 14.3857 15.0625 15.0803 16.1955 16.6429C17.2873 18.1487 17.8684 19.9651 17.9113 22.1268H6.72933C6.74351 21.4642 6.81221 20.8244 6.93639 20.2144L6.93654 20.2137C7.07842 19.513 7.27727 18.8696 7.52749 18.2815C7.77995 17.6883 8.08125 17.1386 8.43425 16.6307ZM31.3704 21.2121C31.3514 21.2482 31.3336 21.2683 31.3154 21.2828H23.4344C23.4337 21.282 23.433 21.2812 23.4322 21.2803L23.4292 21.2828L23.4322 21.2803C23.4008 21.2431 23.3845 21.2068 23.3845 21.1383C23.3845 21.098 23.3906 21.0776 23.3935 21.0699C23.3959 21.0633 23.3995 21.056 23.4098 21.0449C23.4114 21.0431 23.4129 21.0416 23.4142 21.0404H31.3551L31.3593 21.0449C31.3695 21.056 31.3731 21.0633 31.3756 21.0699C31.3784 21.0776 31.3845 21.098 31.3845 21.1383C31.3845 21.1796 31.3764 21.2008 31.3704 21.2121ZM31.3711 12.546C31.3492 12.5758 31.3305 12.6006 31.3142 12.6212H23.4344C23.4337 12.6204 23.433 12.6196 23.4322 12.6187C23.4008 12.5815 23.3845 12.5452 23.3845 12.4766C23.3845 12.4363 23.3906 12.416 23.3935 12.4083C23.3959 12.4017 23.3995 12.3944 23.4098 12.3833C23.4114 12.3815 23.4129 12.38 23.4142 12.3788H31.3547C31.3563 12.3796 31.3584 12.3808 31.3611 12.3824L31.361 12.3824L31.3625 12.3833C31.3641 12.3855 31.3667 12.3893 31.3701 12.3952C31.3831 12.4237 31.3884 12.4508 31.3884 12.4766C31.3884 12.4949 31.388 12.5095 31.3873 12.521C31.3873 12.5216 31.3873 12.5222 31.3872 12.5227C31.3832 12.529 31.3779 12.5367 31.3711 12.546L31.9755 12.99L31.3711 12.546ZM31.3183 8.28455H23.4274C23.413 8.27161 23.3997 8.25951 23.3874 8.24813C23.3856 8.21643 23.3845 8.1819 23.3845 8.14389C23.3845 8.10359 23.3906 8.08324 23.3935 8.07553C23.3959 8.06895 23.3995 8.06165 23.4098 8.05054C23.4114 8.04877 23.4129 8.04726 23.4142 8.046H31.3588C31.3601 8.04731 31.3615 8.04881 31.3631 8.05054C31.3734 8.06165 31.377 8.06895 31.3795 8.07553C31.3823 8.08324 31.3884 8.10359 31.3884 8.14389C31.3884 8.17238 31.3872 8.19438 31.3856 8.21066L31.3183 8.28455ZM14.093 11.2893C13.6041 11.7646 13.0394 11.9946 12.3646 11.995C11.6817 11.9916 11.1198 11.7633 10.632 11.2924C10.1527 10.8261 9.91779 10.271 9.91779 9.57517C9.91779 9.14215 10.0249 8.75836 10.2414 8.39742C10.4607 8.03172 10.7546 7.74396 11.1399 7.5218C11.5162 7.30486 11.9179 7.19812 12.3629 7.19812C13.0409 7.19812 13.6054 7.4259 14.093 7.8999C14.5757 8.36914 14.808 8.91795 14.808 9.59462C14.808 10.2713 14.5757 10.8201 14.093 11.2893ZM23.4098 16.7122C23.4114 16.7104 23.4129 16.7089 23.4142 16.7076H31.3398C31.3461 16.7082 31.3529 16.7093 31.3606 16.7113C31.3656 16.7191 31.373 16.7324 31.3815 16.7533L31.3816 16.7534C31.3836 16.7585 31.3884 16.7703 31.3884 16.8055C31.3884 16.8168 31.3874 16.8268 31.3854 16.8369C31.3834 16.8473 31.3798 16.8612 31.3728 16.8802C31.3639 16.9044 31.3522 16.9274 31.3369 16.9501H23.4344C23.4337 16.9493 23.433 16.9484 23.4322 16.9475C23.4008 16.9104 23.3845 16.874 23.3845 16.8055C23.3845 16.7652 23.3906 16.7449 23.3935 16.7372C23.3959 16.7306 23.3995 16.7233 23.4098 16.7122Z" stroke="white" stroke-width="1.5"/>
</svg>
