<svg width="41" height="36" viewBox="0 0 41 36" fill="none" xmlns="http://www.w3.org/2000/svg">
<mask id="path-1-inside-1_152_6735" fill="white">
<path d="M32.0339 22.7999H8.03385C7.85705 22.7999 7.68745 22.8632 7.56245 22.9757C7.43745 23.0882 7.36719 23.2408 7.36719 23.3999V35.3999C7.36719 35.559 7.43745 35.7117 7.56245 35.8242C7.68745 35.9367 7.85705 35.9999 8.03385 35.9999H32.0339C32.2107 35.9999 32.3803 35.9367 32.5053 35.8242C32.6303 35.7117 32.7005 35.559 32.7005 35.3999V23.3999C32.7005 23.2408 32.6303 23.0882 32.5053 22.9757C32.3803 22.8632 32.2107 22.7999 32.0339 22.7999ZM11.3672 23.9999H12.7005V24.8279L12.3339 24.6659C12.2412 24.6225 12.1383 24.5999 12.0339 24.5999C11.9294 24.5999 11.8265 24.6225 11.7339 24.6659L11.3672 24.8279V23.9999ZM15.3672 34.7999H8.70052V29.9999H10.0339V31.7999C10.0342 31.9022 10.0636 32.0027 10.1193 32.0919C10.1749 32.181 10.2549 32.256 10.3518 32.3094C10.4487 32.363 10.5591 32.3933 10.6726 32.3976C10.7862 32.4018 10.8991 32.3799 11.0005 32.3339L12.0339 31.8719L13.0672 32.3339C13.1603 32.3762 13.2629 32.3987 13.3672 32.3999C13.4919 32.3999 13.6143 32.3687 13.7205 32.3099C13.8166 32.2559 13.8958 32.1807 13.9506 32.0915C14.0055 32.0022 14.0341 31.9019 14.0339 31.7999V29.9999H15.3672V34.7999ZM11.3672 30.8279V29.9999H12.7005V30.8279L12.3339 30.6659C12.2412 30.6225 12.1383 30.5999 12.0339 30.5999C11.9294 30.5999 11.8265 30.6225 11.7339 30.6659L11.3672 30.8279ZM15.3672 28.7999H8.70052V23.9999H10.0339V25.7999C10.0342 25.9022 10.0636 26.0027 10.1193 26.0919C10.1749 26.181 10.2549 26.256 10.3518 26.3094C10.4487 26.363 10.5591 26.3933 10.6726 26.3976C10.7862 26.4018 10.8991 26.3799 11.0005 26.3339L12.0339 25.8719L13.0672 26.3339C13.1603 26.3762 13.2629 26.3987 13.3672 26.3999C13.4919 26.3999 13.6143 26.3687 13.7205 26.3099C13.8166 26.2559 13.8958 26.1807 13.9506 26.0915C14.0055 26.0022 14.0341 25.9019 14.0339 25.7999V23.9999H15.3672V28.7999ZM19.3672 23.9999H20.7005V24.8279L20.3339 24.6659C20.2412 24.6225 20.1383 24.5999 20.0339 24.5999C19.9294 24.5999 19.8265 24.6225 19.7339 24.6659L19.3672 24.8279V23.9999ZM23.3672 34.7999H16.7005V29.9999H18.0339V31.7999C18.0342 31.9022 18.0636 32.0027 18.1193 32.0919C18.1749 32.181 18.2549 32.256 18.3518 32.3094C18.4487 32.363 18.5591 32.3933 18.6726 32.3976C18.7862 32.4018 18.8991 32.3799 19.0005 32.3339L20.0339 31.8719L21.0672 32.3339C21.1603 32.3762 21.2629 32.3987 21.3672 32.3999C21.4919 32.3999 21.6143 32.3687 21.7205 32.3099C21.8166 32.2559 21.8958 32.1807 21.9506 32.0915C22.0055 32.0022 22.0341 31.9019 22.0339 31.7999V29.9999H23.3672V34.7999ZM19.3672 30.8279V29.9999H20.7005V30.8279L20.3339 30.6659C20.2412 30.6225 20.1383 30.5999 20.0339 30.5999C19.9294 30.5999 19.8265 30.6225 19.7339 30.6659L19.3672 30.8279ZM23.3672 28.7999H16.7005V23.9999H18.0339V25.7999C18.0342 25.9022 18.0636 26.0027 18.1193 26.0919C18.1749 26.181 18.2549 26.256 18.3518 26.3094C18.4487 26.363 18.5591 26.3933 18.6726 26.3976C18.7862 26.4018 18.8991 26.3799 19.0005 26.3339L20.0339 25.8719L21.0672 26.3339C21.1603 26.3762 21.2629 26.3987 21.3672 26.3999C21.4919 26.3999 21.6143 26.3687 21.7205 26.3099C21.8166 26.2559 21.8958 26.1807 21.9506 26.0915C22.0055 26.0022 22.0341 25.9019 22.0339 25.7999V23.9999H23.3672V28.7999ZM27.3672 23.9999H28.7005V24.8279L28.3339 24.6659C28.2412 24.6225 28.1383 24.5999 28.0339 24.5999C27.9294 24.5999 27.8265 24.6225 27.7339 24.6659L27.3672 24.8279V23.9999ZM31.3672 34.7999H24.7005V29.9999H26.0339V31.7999C26.0342 31.9022 26.0636 32.0027 26.1193 32.0919C26.1749 32.181 26.2549 32.256 26.3518 32.3094C26.4487 32.363 26.5591 32.3933 26.6726 32.3976C26.7862 32.4018 26.8991 32.3799 27.0005 32.3339L28.0339 31.8719L29.0672 32.3339C29.1603 32.3762 29.2629 32.3987 29.3672 32.3999C29.4919 32.3999 29.6143 32.3687 29.7205 32.3099C29.8166 32.2559 29.8958 32.1807 29.9506 32.0915C30.0055 32.0022 30.0341 31.9019 30.0339 31.7999V29.9999H31.3672V34.7999ZM27.3672 30.8279V29.9999H28.7005V30.8279L28.3339 30.6659C28.2412 30.6225 28.1383 30.5999 28.0339 30.5999C27.9294 30.5999 27.8265 30.6225 27.7339 30.6659L27.3672 30.8279ZM31.3672 28.7999H24.7005V23.9999H26.0339V25.7999C26.0342 25.9022 26.0636 26.0027 26.1193 26.0919C26.1749 26.181 26.2549 26.256 26.3518 26.3094C26.4487 26.363 26.5591 26.3933 26.6726 26.3976C26.7862 26.4018 26.8991 26.3799 27.0005 26.3339L28.0339 25.8719L29.0672 26.3339C29.1603 26.3762 29.2629 26.3987 29.3672 26.3999C29.4919 26.3999 29.6143 26.3687 29.7205 26.3099C29.8166 26.2559 29.8958 26.1807 29.9506 26.0915C30.0055 26.0022 30.0341 25.9019 30.0339 25.7999V23.9999H31.3672V28.7999Z"/>
</mask>
<path d="M32.0339 22.7999H8.03385C7.85705 22.7999 7.68745 22.8632 7.56245 22.9757C7.43745 23.0882 7.36719 23.2408 7.36719 23.3999V35.3999C7.36719 35.559 7.43745 35.7117 7.56245 35.8242C7.68745 35.9367 7.85705 35.9999 8.03385 35.9999H32.0339C32.2107 35.9999 32.3803 35.9367 32.5053 35.8242C32.6303 35.7117 32.7005 35.559 32.7005 35.3999V23.3999C32.7005 23.2408 32.6303 23.0882 32.5053 22.9757C32.3803 22.8632 32.2107 22.7999 32.0339 22.7999ZM11.3672 23.9999H12.7005V24.8279L12.3339 24.6659C12.2412 24.6225 12.1383 24.5999 12.0339 24.5999C11.9294 24.5999 11.8265 24.6225 11.7339 24.6659L11.3672 24.8279V23.9999ZM15.3672 34.7999H8.70052V29.9999H10.0339V31.7999C10.0342 31.9022 10.0636 32.0027 10.1193 32.0919C10.1749 32.181 10.2549 32.256 10.3518 32.3094C10.4487 32.363 10.5591 32.3933 10.6726 32.3976C10.7862 32.4018 10.8991 32.3799 11.0005 32.3339L12.0339 31.8719L13.0672 32.3339C13.1603 32.3762 13.2629 32.3987 13.3672 32.3999C13.4919 32.3999 13.6143 32.3687 13.7205 32.3099C13.8166 32.2559 13.8958 32.1807 13.9506 32.0915C14.0055 32.0022 14.0341 31.9019 14.0339 31.7999V29.9999H15.3672V34.7999ZM11.3672 30.8279V29.9999H12.7005V30.8279L12.3339 30.6659C12.2412 30.6225 12.1383 30.5999 12.0339 30.5999C11.9294 30.5999 11.8265 30.6225 11.7339 30.6659L11.3672 30.8279ZM15.3672 28.7999H8.70052V23.9999H10.0339V25.7999C10.0342 25.9022 10.0636 26.0027 10.1193 26.0919C10.1749 26.181 10.2549 26.256 10.3518 26.3094C10.4487 26.363 10.5591 26.3933 10.6726 26.3976C10.7862 26.4018 10.8991 26.3799 11.0005 26.3339L12.0339 25.8719L13.0672 26.3339C13.1603 26.3762 13.2629 26.3987 13.3672 26.3999C13.4919 26.3999 13.6143 26.3687 13.7205 26.3099C13.8166 26.2559 13.8958 26.1807 13.9506 26.0915C14.0055 26.0022 14.0341 25.9019 14.0339 25.7999V23.9999H15.3672V28.7999ZM19.3672 23.9999H20.7005V24.8279L20.3339 24.6659C20.2412 24.6225 20.1383 24.5999 20.0339 24.5999C19.9294 24.5999 19.8265 24.6225 19.7339 24.6659L19.3672 24.8279V23.9999ZM23.3672 34.7999H16.7005V29.9999H18.0339V31.7999C18.0342 31.9022 18.0636 32.0027 18.1193 32.0919C18.1749 32.181 18.2549 32.256 18.3518 32.3094C18.4487 32.363 18.5591 32.3933 18.6726 32.3976C18.7862 32.4018 18.8991 32.3799 19.0005 32.3339L20.0339 31.8719L21.0672 32.3339C21.1603 32.3762 21.2629 32.3987 21.3672 32.3999C21.4919 32.3999 21.6143 32.3687 21.7205 32.3099C21.8166 32.2559 21.8958 32.1807 21.9506 32.0915C22.0055 32.0022 22.0341 31.9019 22.0339 31.7999V29.9999H23.3672V34.7999ZM19.3672 30.8279V29.9999H20.7005V30.8279L20.3339 30.6659C20.2412 30.6225 20.1383 30.5999 20.0339 30.5999C19.9294 30.5999 19.8265 30.6225 19.7339 30.6659L19.3672 30.8279ZM23.3672 28.7999H16.7005V23.9999H18.0339V25.7999C18.0342 25.9022 18.0636 26.0027 18.1193 26.0919C18.1749 26.181 18.2549 26.256 18.3518 26.3094C18.4487 26.363 18.5591 26.3933 18.6726 26.3976C18.7862 26.4018 18.8991 26.3799 19.0005 26.3339L20.0339 25.8719L21.0672 26.3339C21.1603 26.3762 21.2629 26.3987 21.3672 26.3999C21.4919 26.3999 21.6143 26.3687 21.7205 26.3099C21.8166 26.2559 21.8958 26.1807 21.9506 26.0915C22.0055 26.0022 22.0341 25.9019 22.0339 25.7999V23.9999H23.3672V28.7999ZM27.3672 23.9999H28.7005V24.8279L28.3339 24.6659C28.2412 24.6225 28.1383 24.5999 28.0339 24.5999C27.9294 24.5999 27.8265 24.6225 27.7339 24.6659L27.3672 24.8279V23.9999ZM31.3672 34.7999H24.7005V29.9999H26.0339V31.7999C26.0342 31.9022 26.0636 32.0027 26.1193 32.0919C26.1749 32.181 26.2549 32.256 26.3518 32.3094C26.4487 32.363 26.5591 32.3933 26.6726 32.3976C26.7862 32.4018 26.8991 32.3799 27.0005 32.3339L28.0339 31.8719L29.0672 32.3339C29.1603 32.3762 29.2629 32.3987 29.3672 32.3999C29.4919 32.3999 29.6143 32.3687 29.7205 32.3099C29.8166 32.2559 29.8958 32.1807 29.9506 32.0915C30.0055 32.0022 30.0341 31.9019 30.0339 31.7999V29.9999H31.3672V34.7999ZM27.3672 30.8279V29.9999H28.7005V30.8279L28.3339 30.6659C28.2412 30.6225 28.1383 30.5999 28.0339 30.5999C27.9294 30.5999 27.8265 30.6225 27.7339 30.6659L27.3672 30.8279ZM31.3672 28.7999H24.7005V23.9999H26.0339V25.7999C26.0342 25.9022 26.0636 26.0027 26.1193 26.0919C26.1749 26.181 26.2549 26.256 26.3518 26.3094C26.4487 26.363 26.5591 26.3933 26.6726 26.3976C26.7862 26.4018 26.8991 26.3799 27.0005 26.3339L28.0339 25.8719L29.0672 26.3339C29.1603 26.3762 29.2629 26.3987 29.3672 26.3999C29.4919 26.3999 29.6143 26.3687 29.7205 26.3099C29.8166 26.2559 29.8958 26.1807 29.9506 26.0915C30.0055 26.0022 30.0341 25.9019 30.0339 25.7999V23.9999H31.3672V28.7999Z" stroke="white" stroke-width="2" mask="url(#path-1-inside-1_152_6735)"/>
<path d="M17.8665 16.1H17.3665H14.6999H14.1999V15.6V9.6V9.1H14.6999H15.3665C15.4267 9.1 15.4753 9.07798 15.5035 9.05261C15.5299 9.02881 15.5332 9.00847 15.5332 9V7.2C15.5332 7.19153 15.5299 7.17119 15.5035 7.14739C15.4753 7.12202 15.4267 7.1 15.3665 7.1H3.36654C3.30638 7.1 3.25783 7.122 3.22958 7.14741C3.20318 7.17117 3.19987 7.19148 3.19987 7.2V9L17.8665 16.1ZM17.8665 16.1V15.6M17.8665 16.1V15.6M17.8665 15.6V4.584V4.25031L17.5584 4.12227L9.55838 0.79827L9.36654 0.718557L9.17469 0.79827L1.17469 4.12227L0.866536 4.25031V4.584V15.6V16.1H1.36654H4.0332H4.5332V15.6V9.6V9.1M17.8665 15.6L4.5332 9.1M4.5332 9.1H4.0332M4.5332 9.1H4.0332M4.0332 9.1H3.36654C3.30638 9.1 3.25783 9.078 3.22958 9.05259L4.0332 9.1ZM18.1166 4.11374L9.45916 0.517561C9.45863 0.517347 9.4581 0.517135 9.45756 0.516924C9.43038 0.506176 9.39926 0.5 9.36654 0.5C9.33381 0.5 9.30269 0.506176 9.27551 0.516924L0.614763 4.11446C0.580718 4.12936 0.559146 4.14933 0.547374 4.16595C0.536305 4.18158 0.533458 4.1944 0.533203 4.20326V16.2C0.533203 16.2085 0.536512 16.2288 0.562915 16.2526M18.1166 4.11374L0.562915 16.2526M18.1166 4.11374C18.1172 4.11398 18.1178 4.11422 18.1183 4.11446M18.1166 4.11374L18.1183 4.11446M0.562915 16.2526C0.591157 16.278 0.639707 16.3 0.69987 16.3H18.0332C18.0934 16.3 18.1419 16.278 18.1701 16.2526L18.5046 16.6243M0.562915 16.2526L18.5046 16.6243M18.5046 16.6243L18.1701 16.2526C18.1966 16.2288 18.1999 16.2085 18.1999 16.2V4.20315C18.1996 4.19443 18.1968 4.18166 18.1857 4.16599C18.1739 4.1493 18.1523 4.12935 18.1183 4.11446M18.5046 16.6243L18.1183 4.11446M13.3665 16.1H13.8665V15.6V15V14.5H13.3665H5.36654H4.86654V15V15.6V16.1H5.36654H13.3665ZM13.3665 14.3H13.8665V13.8V13.2V12.7H13.3665H5.36654H4.86654V13.2V13.8V14.3H5.36654H13.3665ZM13.3665 12.5H13.8665V12V11.4V10.9H13.3665H5.36654H4.86654V11.4V12V12.5H5.36654H13.3665ZM13.3665 10.7H13.8665V10.2V9.6V9.1H13.3665H5.36654H4.86654V9.6V10.2V10.7H5.36654H13.3665ZM3.5332 8.4V8.9H4.0332H14.6999H15.1999V8.4V7.8V7.3H14.6999H4.0332H3.5332V7.8V8.4Z" stroke="white"/>
<path d="M34.7005 16.1H35.2005V15.6V15V14.5H34.7005H26.7005H26.2005V15V15.6V16.1H26.7005H34.7005ZM34.7005 14.3H35.2005V13.8V13.2V12.7H34.7005H26.7005H26.2005V13.2V13.8V14.3H26.7005H34.7005ZM34.7005 12.5H35.2005V12V11.4V10.9H34.7005H26.7005H26.2005V11.4V12V12.5H26.7005H34.7005ZM34.7005 10.7H35.2005V10.2V9.6V9.1H34.7005H26.7005H26.2005V9.6V10.2V10.7H26.7005H34.7005ZM24.8672 8.4V8.9H25.3672H36.0339H36.5339V8.4V7.8V7.3H36.0339H25.3672H24.8672V7.8V8.4ZM38.7005 16.1H39.2005V15.6V4.584V4.25031L38.8924 4.12227L30.8924 0.79827L30.7005 0.718557L30.5087 0.79827L22.5087 4.12227L22.2005 4.25031V4.584V15.6V16.1H22.7005H25.3672H25.8672V15.6V9.6V9.1H25.3672H24.7005C24.6403 9.1 24.5918 9.07798 24.5636 9.05261C24.5372 9.02881 24.5339 9.00847 24.5339 9V7.2C24.5339 7.19153 24.5372 7.17119 24.5636 7.14739C24.5918 7.12202 24.6403 7.1 24.7005 7.1H36.7005C36.7607 7.1 36.8093 7.12202 36.8374 7.14739C36.8639 7.17119 36.8672 7.19153 36.8672 7.2V9C36.8672 9.00847 36.8639 9.02881 36.8374 9.05261C36.8093 9.07798 36.7607 9.1 36.7005 9.1H36.0339H35.5339V9.6V15.6V16.1H36.0339H38.7005ZM30.7931 0.517561L39.4506 4.11374C39.4512 4.11398 39.4517 4.11422 39.4523 4.11446C39.4863 4.12934 39.5079 4.1493 39.5197 4.16599C39.5308 4.18165 39.5336 4.19443 39.5339 4.20315V16.2C39.5339 16.2085 39.5306 16.2288 39.5041 16.2526L39.8386 16.6243L39.5041 16.2526C39.4759 16.278 39.4274 16.3 39.3672 16.3H22.0339C21.9737 16.3 21.9251 16.278 21.8969 16.2526L21.5628 16.6238L21.8969 16.2526C21.8705 16.2288 21.8672 16.2085 21.8672 16.2V4.20316C21.8674 4.19444 21.8702 4.18166 21.8813 4.16599C21.8931 4.14931 21.9147 4.12935 21.9487 4.11446L30.6095 0.516926C30.6367 0.506177 30.6678 0.5 30.7005 0.5C30.7332 0.5 30.7644 0.506176 30.7915 0.516924C30.7921 0.517135 30.7926 0.517347 30.7931 0.517561Z" stroke="white"/>
</svg>
