<svg width="31" height="36" viewBox="0 0 31 36" fill="none" xmlns="http://www.w3.org/2000/svg">
<mask id="path-1-inside-1_152_6759" fill="white">
<path d="M15.8571 21.6704L16.0089 21.4022L15.0332 22.3978C15.2392 22.3978 15.4452 22.3941 15.6475 22.3904C15.6656 22.1406 15.7343 21.8945 15.8571 21.6704Z"/>
</mask>
<path d="M15.8571 21.6704L14.9868 21.1778L14.9803 21.1896L15.8571 21.6704ZM16.0089 21.4022L16.8792 21.8948L15.2947 20.7023L16.0089 21.4022ZM15.0332 22.3978L14.319 21.6978L12.6529 23.3978H15.0332V22.3978ZM15.6475 22.3904L15.6657 23.3902L16.579 23.3737L16.6449 22.4625L15.6475 22.3904ZM16.7274 22.1629L16.8792 21.8948L15.1386 20.9097L14.9868 21.1778L16.7274 22.1629ZM15.2947 20.7023L14.319 21.6978L15.7474 23.0977L16.7231 22.1022L15.2947 20.7023ZM15.0332 23.3978C15.2496 23.3978 15.4645 23.3939 15.6657 23.3902L15.6294 21.3906C15.4259 21.3943 15.2287 21.3978 15.0332 21.3978V23.3978ZM16.6449 22.4625C16.6533 22.3471 16.6843 22.2417 16.734 22.1512L14.9803 21.1896C14.7842 21.5473 14.6779 21.9341 14.6501 22.3183L16.6449 22.4625Z" fill="white" mask="url(#path-1-inside-1_152_6759)"/>
<path d="M14.4091 16.3474L14.1582 16.2563L13.903 16.0815C13.0031 15.4653 12.3643 14.2225 12.3643 13.1181C12.3643 11.6048 13.5683 10.3927 15.0371 10.3927C16.5058 10.3927 17.7099 11.6048 17.7099 13.1181C17.7099 14.2233 17.0705 15.4688 16.1721 16.0808L15.9058 16.2623L15.6599 16.3503C15.4463 16.4267 15.2399 16.468 15.0334 16.468C14.83 16.468 14.6211 16.4243 14.4091 16.3474ZM13.8603 17.1445L14.1972 17.5339L12.9623 20.5668L12.8382 20.8715L13.0689 21.106L13.8143 21.8638C13.3172 21.8391 12.8347 21.7991 12.3833 21.744C12.3794 21.7324 12.3754 21.7208 12.3713 21.7092C12.4648 21.4599 12.5196 21.1866 12.5196 20.8913C12.5196 20.614 12.4621 20.3566 12.373 20.1248C12.4655 19.8768 12.5196 19.6051 12.5196 19.3117C12.5196 19.0347 12.4623 18.7777 12.3734 18.5462C12.466 18.2993 12.5196 18.0278 12.5196 17.7357C12.5196 17.6418 12.5127 17.5512 12.5005 17.4641C12.8821 17.2618 13.2908 17.0979 13.7218 16.9844L13.8603 17.1445ZM16.3476 16.9831C16.8064 17.1021 17.2408 17.2845 17.648 17.5116L16.6077 19.3434L15.8735 17.5382L16.2087 17.1457L16.3476 16.9831Z" stroke="white"/>
<path d="M10.3601 17.9303H5.6696C5.61714 17.9303 5.5625 17.8826 5.5625 17.8169V17.7397C5.5625 17.7083 5.57506 17.6782 5.59782 17.655C5.6205 17.632 5.64633 17.6226 5.6696 17.6226H10.3601C10.3834 17.6226 10.4092 17.632 10.4319 17.655C10.4547 17.6782 10.4672 17.7083 10.4672 17.7397V17.8169C10.4672 17.8826 10.4126 17.9303 10.3601 17.9303Z" stroke="white"/>
<path d="M10.3601 19.5099H5.6696C5.64633 19.5099 5.6205 19.5005 5.59782 19.4775C5.57506 19.4543 5.5625 19.4242 5.5625 19.3928V19.3156C5.5625 19.2443 5.61907 19.1985 5.6696 19.1985H10.3601C10.4107 19.1985 10.4672 19.2443 10.4672 19.3156V19.3928C10.4672 19.4641 10.4107 19.5099 10.3601 19.5099Z" stroke="white"/>
<path d="M10.3601 21.0894H5.6696C5.64633 21.0894 5.6205 21.08 5.59782 21.0569C5.57506 21.0338 5.5625 21.0037 5.5625 20.9722V20.8951C5.5625 20.8294 5.61714 20.7816 5.6696 20.7816H10.3601C10.4126 20.7816 10.4672 20.8294 10.4672 20.8951V20.9722C10.4672 21.0436 10.4107 21.0894 10.3601 21.0894Z" stroke="white"/>
<path d="M10.3601 22.6689H5.6696C5.64622 22.6689 5.62003 22.6593 5.5971 22.6361C5.574 22.6127 5.5625 22.5836 5.5625 22.5554V22.4782C5.5625 22.4468 5.57506 22.4167 5.59782 22.3936C5.6205 22.3705 5.64633 22.3611 5.6696 22.3611H10.3601C10.3834 22.3611 10.4092 22.3705 10.4319 22.3936C10.4547 22.4167 10.4672 22.4468 10.4672 22.4782V22.5554C10.4672 22.6211 10.4126 22.6689 10.3601 22.6689Z" stroke="white"/>
<path d="M19.5477 18.3243L19.5482 18.3235C19.58 18.2672 19.6422 18.2582 19.6798 18.2785L19.7381 18.3147L19.738 18.3148L19.7456 18.3193C19.8023 18.3531 19.8228 18.4318 19.7909 18.4885C19.7909 18.4886 19.7908 18.4887 19.7908 18.4887L17.4459 22.617L17.4459 22.617L17.4445 22.6196C17.4333 22.6397 17.4135 22.6562 17.3846 22.664C17.3572 22.6713 17.3295 22.6684 17.3061 22.6566L17.252 22.6229L17.252 22.6228L17.2428 22.6174C17.2205 22.6042 17.2009 22.5803 17.192 22.5464C17.1831 22.5128 17.1876 22.4798 17.2028 22.4528C17.2028 22.4527 17.2029 22.4527 17.2029 22.4526L19.5477 18.3243Z" stroke="white"/>
<path d="M20.7575 19.5099C20.7072 19.5099 20.6504 19.4643 20.6504 19.3928V19.3156C20.6504 19.2443 20.707 19.1985 20.7575 19.1985H25.448C25.4947 19.1985 25.5515 19.2404 25.5515 19.3156V19.3928C25.5515 19.468 25.4947 19.5099 25.448 19.5099H20.7575Z" stroke="white"/>
<path d="M25.448 20.7816C25.4892 20.7816 25.5349 20.8131 25.5479 20.8651V20.8951V20.9722C25.5479 21.0475 25.4911 21.0894 25.4444 21.0894H20.7539C20.7091 21.0894 20.6504 21.0458 20.6504 20.9722V20.8951C20.6504 20.8255 20.7053 20.7816 20.7539 20.7816H25.448Z" stroke="white"/>
<path d="M20.7575 22.3573H25.448C25.4928 22.3573 25.5515 22.4009 25.5515 22.4745V22.5516C25.5515 22.6212 25.4966 22.6651 25.448 22.6651H20.7575C20.7033 22.6651 20.6504 22.6192 20.6504 22.5516V22.4745C20.6504 22.443 20.6629 22.4129 20.6857 22.3898C20.7084 22.3667 20.7342 22.3573 20.7575 22.3573Z" stroke="white"/>
<path d="M29.2136 25.0577H29.5339V25.4647H27.2477H26.7477V25.9647V34.4249V34.9249H27.2477H27.4379V35.2184V35.5008H2.62913V35.2184V34.9249H2.82295H3.32295V34.4249V25.9647V25.4647H2.82295H0.533203V25.0577H0.853505H29.2136Z" stroke="white"/>
<mask id="path-13-inside-2_152_6759" fill="white">
<path d="M15.0341 8.70264C17.3939 8.70264 19.3163 6.75198 19.3163 4.34948C19.3163 1.95065 17.3939 0 15.0341 0C12.6744 0 10.752 1.95065 10.752 4.34948C10.752 6.75198 12.6744 8.70264 15.0341 8.70264ZM11.5289 4.45234H11.8686V4.25764H11.5289C11.547 3.6809 11.7023 3.14088 11.9589 2.65965L12.2444 2.82863L12.342 2.65965L12.0529 2.49067C12.342 2.01311 12.7322 1.61636 13.202 1.32248L13.3719 1.61636L13.5381 1.52085L13.3755 1.23064C13.8453 0.969817 14.3765 0.808181 14.9438 0.793487V1.1388H15.0233L14.5066 2.19311H14.8571V4.35683C14.8571 4.3752 14.8715 4.38622 14.8751 4.40091C14.8788 4.41561 14.8715 4.43397 14.8824 4.44867L15.5798 5.67931L15.2763 5.85564L16.2736 6.52422L16.2014 5.31195L15.8978 5.48828L15.2184 4.29805V2.18944H15.569L15.0522 1.13513H15.1317V0.789813C15.6991 0.804507 16.2303 0.966144 16.7 1.22697L16.5338 1.51718L16.7 1.61269L16.8663 1.3188C17.3361 1.61269 17.7299 2.00943 18.0154 2.48699L17.7263 2.65965L17.8239 2.82863L18.1094 2.65965C18.3659 3.13721 18.5213 3.67722 18.5394 4.25397H18.1997V4.44867H18.5394C18.5213 5.02542 18.3659 5.56543 18.1094 6.04666L17.8239 5.87768L17.7299 6.04666L18.019 6.21565C17.7299 6.69321 17.3361 7.08995 16.8699 7.38383L16.7 7.08995L16.5338 7.18546L16.7 7.47567C16.2267 7.7365 15.6991 7.89813 15.1317 7.91283V7.56751H14.9402V7.91283C14.3728 7.89813 13.8416 7.7365 13.3719 7.47567L13.5381 7.18546L13.3719 7.08995L13.2056 7.38383C12.7359 7.08995 12.342 6.68953 12.0529 6.21565L12.342 6.04299L12.2444 5.87401L11.9589 6.03931C11.7023 5.56543 11.5433 5.02909 11.5289 4.45234Z"/>
</mask>
<path d="M11.5289 4.45234V3.45234H10.5035L10.5292 4.4774L11.5289 4.45234ZM11.8686 4.45234V5.45234H12.8686V4.45234H11.8686ZM11.8686 4.25764H12.8686V3.25764H11.8686V4.25764ZM11.5289 4.25764L10.5294 4.22633L10.4971 5.25764H11.5289V4.25764ZM11.9589 2.65965L12.4683 1.79911L11.5684 1.26646L11.0765 2.18919L11.9589 2.65965ZM12.2444 2.82863L11.735 3.68918L12.6049 4.2041L13.1104 3.32866L12.2444 2.82863ZM12.342 2.65965L13.208 3.15968L13.7053 2.29828L12.8466 1.79632L12.342 2.65965ZM12.0529 2.49067L11.1974 1.97281L10.6715 2.84153L11.5482 3.354L12.0529 2.49067ZM13.202 1.32248L14.0678 0.822105L13.5496 -0.0745411L12.6717 0.474701L13.202 1.32248ZM13.3719 1.61636L12.5061 2.11673L13.0052 2.98038L13.8701 2.48342L13.3719 1.61636ZM13.5381 1.52085L14.0363 2.38791L14.8941 1.89505L14.4105 1.03202L13.5381 1.52085ZM13.3755 1.23064L12.8901 0.356351L12.0124 0.843663L12.5031 1.71946L13.3755 1.23064ZM14.9438 0.793487H15.9438V-0.232749L14.9179 -0.206178L14.9438 0.793487ZM14.9438 1.1388H13.9438V2.1388H14.9438V1.1388ZM15.0233 1.1388L15.9212 1.57891L16.6271 0.1388H15.0233V1.1388ZM14.5066 2.19311L13.6086 1.75299L12.9028 3.19311H14.5066V2.19311ZM14.8571 2.19311H15.8571V1.19311H14.8571V2.19311ZM14.8824 4.44867L15.7524 3.95562L15.7227 3.90334L15.6871 3.85498L14.8824 4.44867ZM15.5798 5.67931L16.0821 6.544L16.9376 6.04703L16.4498 5.18625L15.5798 5.67931ZM15.2763 5.85564L14.774 4.99094L13.3898 5.79498L14.7194 6.68627L15.2763 5.85564ZM16.2736 6.52422L15.7168 7.35486L17.3919 8.47773L17.2719 6.46471L16.2736 6.52422ZM16.2014 5.31195L17.1996 5.25244L17.103 3.63173L15.6991 4.44726L16.2014 5.31195ZM15.8978 5.48828L15.0293 5.984L15.5288 6.8591L16.4001 6.35298L15.8978 5.48828ZM15.2184 4.29805H14.2184V4.56336L14.35 4.79377L15.2184 4.29805ZM15.2184 2.18944V1.18944H14.2184V2.18944H15.2184ZM15.569 2.18944V3.18944H17.1728L16.4669 1.74932L15.569 2.18944ZM15.0522 1.13513V0.135127H13.4484L14.1543 1.57524L15.0522 1.13513ZM15.1317 1.13513V2.13513H16.1317V1.13513H15.1317ZM15.1317 0.789813L15.1576 -0.209852L14.1317 -0.236422V0.789813H15.1317ZM16.7 1.22697L17.5678 1.72399L18.0715 0.844604L17.1855 0.352678L16.7 1.22697ZM16.5338 1.51718L15.6661 1.02015L15.1697 1.88671L16.0356 2.38424L16.5338 1.51718ZM16.7 1.61269L16.2018 2.47975L17.0748 2.98133L17.5705 2.10502L16.7 1.61269ZM16.8663 1.3188L17.3966 0.471028L16.5105 -0.0833307L15.9959 0.826474L16.8663 1.3188ZM18.0154 2.48699L18.5282 3.34553L19.3871 2.83257L18.8738 1.97389L18.0154 2.48699ZM17.7263 2.65965L17.2136 1.80111L16.3676 2.30635L16.8603 3.15968L17.7263 2.65965ZM17.8239 2.82863L16.9579 3.32866L17.4634 4.2041L18.3333 3.68917L17.8239 2.82863ZM18.1094 2.65965L18.9903 2.18638L18.497 1.26816L17.6 1.79911L18.1094 2.65965ZM18.5394 4.25397V5.25397H19.5712L19.5389 4.22266L18.5394 4.25397ZM18.1997 4.25397V3.25397H17.1997V4.25397H18.1997ZM18.1997 4.44867H17.1997V5.44867H18.1997V4.44867ZM18.5394 4.44867L19.5389 4.47998L19.5712 3.44867H18.5394V4.44867ZM18.1094 6.04666L17.6 6.9072L18.4998 7.43985L18.9918 6.51712L18.1094 6.04666ZM17.8239 5.87768L18.3333 5.01714L17.4492 4.4938L16.9499 5.39173L17.8239 5.87768ZM17.7299 6.04666L16.856 5.56072L16.3804 6.4161L17.2253 6.90999L17.7299 6.04666ZM18.019 6.21565L18.8745 6.7335L19.4004 5.86478L18.5237 5.35232L18.019 6.21565ZM16.8699 7.38383L16.0041 7.88421L16.5241 8.78398L17.4032 8.22976L16.8699 7.38383ZM16.7 7.08995L17.5659 6.58958L17.0667 5.72593L16.2018 6.22289L16.7 7.08995ZM16.5338 7.18546L16.0356 6.3184L15.1697 6.81593L15.6661 7.68249L16.5338 7.18546ZM16.7 7.47567L17.1826 8.35153L18.0731 7.86089L17.5678 6.97865L16.7 7.47567ZM15.1317 7.91283H14.1317V8.93906L15.1576 8.91249L15.1317 7.91283ZM15.1317 7.56751H16.1317V6.56751H15.1317V7.56751ZM14.9402 7.56751V6.56751H13.9402V7.56751H14.9402ZM14.9402 7.91283L14.9143 8.91249L15.9402 8.93906V7.91283H14.9402ZM13.3719 7.47567L12.5041 6.97865L12.0004 7.85803L12.8865 8.34996L13.3719 7.47567ZM13.5381 7.18546L14.4058 7.68249L14.9022 6.81593L14.0363 6.3184L13.5381 7.18546ZM13.3719 7.08995L13.8701 6.22289L12.9971 5.72131L12.5015 6.59762L13.3719 7.08995ZM13.2056 7.38383L12.6753 8.23161L13.5614 8.78597L14.076 7.87616L13.2056 7.38383ZM12.0529 6.21565L11.5401 5.35711L10.6735 5.87469L11.1992 6.73643L12.0529 6.21565ZM12.342 6.04299L12.8547 6.90153L13.7007 6.39629L13.208 5.54296L12.342 6.04299ZM12.2444 5.87401L13.1104 5.37398L12.6098 4.50688L11.7433 5.00862L12.2444 5.87401ZM11.9589 6.03931L11.0795 6.51543L11.5695 7.42038L12.46 6.9047L11.9589 6.03931ZM15.0341 9.70264C17.961 9.70264 20.3163 7.28926 20.3163 4.34948H18.3163C18.3163 6.2147 16.8267 7.70264 15.0341 7.70264V9.70264ZM20.3163 4.34948C20.3163 1.41282 17.9605 -1 15.0341 -1V1C16.8272 1 18.3163 2.48849 18.3163 4.34948H20.3163ZM15.0341 -1C12.1078 -1 9.75195 1.41282 9.75195 4.34948H11.752C11.752 2.48849 13.241 1 15.0341 1V-1ZM9.75195 4.34948C9.75195 7.28926 12.1073 9.70264 15.0341 9.70264V7.70264C13.2416 7.70264 11.752 6.2147 11.752 4.34948H9.75195ZM11.5289 5.45234H11.8686V3.45234H11.5289V5.45234ZM12.8686 4.45234V4.25764H10.8686V4.45234H12.8686ZM11.8686 3.25764H11.5289V5.25764H11.8686V3.25764ZM12.5284 4.28896C12.5414 3.87467 12.6526 3.4841 12.8413 3.13011L11.0765 2.18919C10.7521 2.79767 10.5525 3.48712 10.5294 4.22633L12.5284 4.28896ZM11.4495 3.52019L11.735 3.68918L12.7538 1.96809L12.4683 1.79911L11.4495 3.52019ZM13.1104 3.32866L13.208 3.15968L11.476 2.15962L11.3784 2.32861L13.1104 3.32866ZM12.8466 1.79632L12.5575 1.62734L11.5482 3.354L11.8373 3.52298L12.8466 1.79632ZM12.9083 3.00853C13.117 2.66383 13.3963 2.38049 13.7324 2.17025L12.6717 0.474701C12.0682 0.852238 11.5669 1.36238 11.1974 1.97281L12.9083 3.00853ZM12.3362 1.82285L12.5061 2.11673L14.2377 1.11599L14.0678 0.822105L12.3362 1.82285ZM13.8701 2.48342L14.0363 2.38791L13.0399 0.653787L12.8737 0.749299L13.8701 2.48342ZM14.4105 1.03202L14.2479 0.741813L12.5031 1.71946L12.6657 2.00968L14.4105 1.03202ZM13.8609 2.10493C14.2039 1.91448 14.5787 1.80328 14.9697 1.79315L14.9179 -0.206178C14.1742 -0.186915 13.4866 0.0251519 12.8901 0.356351L13.8609 2.10493ZM13.9438 0.793487V1.1388H15.9438V0.793487H13.9438ZM14.9438 2.1388H15.0233V0.1388H14.9438V2.1388ZM14.1254 0.698686L13.6086 1.75299L15.4045 2.63322L15.9212 1.57891L14.1254 0.698686ZM14.5066 3.19311H14.8571V1.19311H14.5066V3.19311ZM13.8571 2.19311V4.35683H15.8571V2.19311H13.8571ZM13.8571 4.35683C13.8571 4.64405 13.9777 4.84476 14.0036 4.88854C14.0088 4.89731 14.017 4.91076 14.013 4.90422C14.0124 4.90318 14.0043 4.89008 13.9947 4.87247C13.9759 4.83842 13.9325 4.75549 13.9041 4.63972L15.8462 4.1621C15.8159 4.03899 15.7694 3.94917 15.7469 3.90835C15.7354 3.88735 15.7254 3.87089 15.7227 3.86648C15.7167 3.85657 15.7228 3.86663 15.7259 3.87196C15.7437 3.90197 15.8571 4.08797 15.8571 4.35683H13.8571ZM13.9041 4.63972C13.8765 4.52774 13.8763 4.438 13.8763 4.41249C13.8763 4.39833 13.8767 4.38637 13.8765 4.39108C13.8765 4.39163 13.8764 4.39608 13.8763 4.40115C13.8762 4.40657 13.876 4.41482 13.876 4.42477C13.876 4.49135 13.8768 4.77008 14.0777 5.04235L15.6871 3.85498C15.8771 4.11256 15.8761 4.37476 15.876 4.42481C15.876 4.43872 15.8757 4.45027 15.8758 4.44613C15.8758 4.44578 15.8759 4.44133 15.876 4.43637C15.8761 4.43103 15.8763 4.42267 15.8763 4.41252C15.8763 4.37897 15.8756 4.28144 15.8462 4.1621L13.9041 4.63972ZM14.0124 4.94172L14.7098 6.17236L16.4498 5.18625L15.7524 3.95562L14.0124 4.94172ZM15.0775 4.81461L14.774 4.99094L15.7786 6.72033L16.0821 6.544L15.0775 4.81461ZM14.7194 6.68627L15.7168 7.35486L16.8305 5.69359L15.8331 5.025L14.7194 6.68627ZM17.2719 6.46471L17.1996 5.25244L15.2031 5.37147L15.2754 6.58374L17.2719 6.46471ZM15.6991 4.44726L15.3955 4.62359L16.4001 6.35298L16.7037 6.17665L15.6991 4.44726ZM16.7663 4.99256L16.0869 3.80233L14.35 4.79377L15.0293 5.984L16.7663 4.99256ZM16.2184 4.29805V2.18944H14.2184V4.29805H16.2184ZM15.2184 3.18944H15.569V1.18944H15.2184V3.18944ZM16.4669 1.74932L15.9502 0.695014L14.1543 1.57524L14.671 2.62955L16.4669 1.74932ZM15.0522 2.13513H15.1317V0.135127H15.0522V2.13513ZM16.1317 1.13513V0.789813H14.1317V1.13513H16.1317ZM15.1058 1.78948C15.4968 1.7996 15.8716 1.91081 16.2146 2.10125L17.1855 0.352678C16.5889 0.0214787 15.9014 -0.190589 15.1576 -0.209852L15.1058 1.78948ZM15.8323 0.72994L15.6661 1.02015L17.4016 2.0142L17.5678 1.72399L15.8323 0.72994ZM16.0356 2.38424L16.2018 2.47975L17.1982 0.745627L17.032 0.650115L16.0356 2.38424ZM17.5705 2.10502L17.7367 1.81113L15.9959 0.826474L15.8296 1.12036L17.5705 2.10502ZM16.3359 2.16658C16.675 2.3787 16.955 2.66208 17.1571 3.00009L18.8738 1.97389C18.5049 1.35678 17.9971 0.846675 17.3966 0.471028L16.3359 2.16658ZM17.5027 1.62845L17.2136 1.80111L18.2391 3.51819L18.5282 3.34553L17.5027 1.62845ZM16.8603 3.15968L16.9579 3.32866L18.6899 2.32861L18.5923 2.15962L16.8603 3.15968ZM18.3333 3.68917L18.6188 3.52019L17.6 1.79911L17.3145 1.96809L18.3333 3.68917ZM17.2285 3.13292C17.4155 3.48108 17.5269 3.87054 17.5399 4.28528L19.5389 4.22266C19.5158 3.48391 19.3164 2.79335 18.9903 2.18638L17.2285 3.13292ZM18.5394 3.25397H18.1997V5.25397H18.5394V3.25397ZM17.1997 4.25397V4.44867H19.1997V4.25397H17.1997ZM18.1997 5.44867H18.5394V3.44867H18.1997V5.44867ZM17.5399 4.41736C17.5269 4.83164 17.4157 5.22221 17.227 5.5762L18.9918 6.51712C19.3162 5.90864 19.5158 5.21919 19.5389 4.47998L17.5399 4.41736ZM18.6188 5.18612L18.3333 5.01714L17.3145 6.73822L17.6 6.9072L18.6188 5.18612ZM16.9499 5.39173L16.856 5.56072L18.6039 6.53261L18.6979 6.36363L16.9499 5.39173ZM17.2253 6.90999L17.5144 7.07898L18.5237 5.35232L18.2346 5.18333L17.2253 6.90999ZM17.1636 5.69779C16.9564 6.04008 16.6737 6.32538 16.3366 6.53791L17.4032 8.22976C17.9984 7.85452 18.5035 7.34633 18.8745 6.7335L17.1636 5.69779ZM17.7357 6.88346L17.5659 6.58958L15.8342 7.59032L16.0041 7.88421L17.7357 6.88346ZM16.2018 6.22289L16.0356 6.3184L17.032 8.05252L17.1982 7.95701L16.2018 6.22289ZM15.6661 7.68249L15.8323 7.9727L17.5678 6.97865L17.4016 6.68844L15.6661 7.68249ZM16.2175 6.59981C15.8675 6.79264 15.4952 6.90308 15.1058 6.91316L15.1576 8.91249C15.9029 8.89319 16.5858 8.68034 17.1826 8.35153L16.2175 6.59981ZM16.1317 7.91283V7.56751H14.1317V7.91283H16.1317ZM15.1317 6.56751H14.9402V8.56751H15.1317V6.56751ZM13.9402 7.56751V7.91283H15.9402V7.56751H13.9402ZM14.9661 6.91316C14.5751 6.90303 14.2003 6.79183 13.8573 6.60139L12.8865 8.34996C13.483 8.68116 14.1706 8.89323 14.9143 8.91249L14.9661 6.91316ZM14.2396 7.9727L14.4058 7.68249L12.6704 6.68844L12.5041 6.97865L14.2396 7.9727ZM14.0363 6.3184L13.8701 6.22289L12.8737 7.95701L13.0399 8.05252L14.0363 6.3184ZM12.5015 6.59762L12.3352 6.89151L14.076 7.87616L14.2423 7.58228L12.5015 6.59762ZM13.736 6.53606C13.3996 6.32561 13.1158 6.03778 12.9066 5.69486L11.1992 6.73643C11.5682 7.34128 12.0721 7.85429 12.6753 8.23161L13.736 6.53606ZM12.5656 7.07418L12.8547 6.90153L11.8292 5.18445L11.5401 5.35711L12.5656 7.07418ZM13.208 5.54296L13.1104 5.37398L11.3784 6.37403L11.476 6.54301L13.208 5.54296ZM11.7433 5.00862L11.4578 5.17393L12.46 6.9047L12.7455 6.73939L11.7433 5.00862ZM12.8383 5.5632C12.6502 5.21581 12.5387 4.83292 12.5286 4.42729L10.5292 4.4774C10.5479 5.22525 10.7545 5.91505 11.0795 6.51543L12.8383 5.5632Z" fill="white" mask="url(#path-13-inside-2_152_6759)"/>
</svg>
