<svg width="161" height="107" viewBox="0 0 161 107" fill="none" xmlns="http://www.w3.org/2000/svg">
<circle cx="3.22339" cy="3.68091" r="3.19018" fill="#C1C1C1"/>
<circle cx="3.22339" cy="18.405" r="3.19018" fill="#C1C1C1"/>
<circle cx="3.22339" cy="32.1472" r="3.19018" fill="#C1C1C1"/>
<circle cx="3.22339" cy="46.8711" r="3.19018" fill="#C1C1C1"/>
<circle cx="3.22339" cy="60.6135" r="3.19018" fill="#C1C1C1"/>
<circle cx="3.22339" cy="75.3374" r="3.19018" fill="#C1C1C1"/>
<circle cx="19.9109" cy="90.0613" r="3.19018" fill="#C1C1C1"/>
<circle cx="19.9109" cy="74.8467" r="3.19018" fill="#C1C1C1"/>
<circle cx="19.9109" cy="60.6135" r="3.19018" fill="#C1C1C1"/>
<circle cx="19.9109" cy="46.8711" r="3.19018" fill="#C1C1C1"/>
<circle cx="19.9109" cy="32.1472" r="3.19018" fill="#C1C1C1"/>
<circle cx="19.9109" cy="17.9141" r="3.19018" fill="#C1C1C1"/>
<circle cx="19.9109" cy="3.68091" r="3.19018" fill="#C1C1C1"/>
<circle cx="36.5984" cy="3.68091" r="3.19018" fill="#C1C1C1"/>
<circle cx="37.0886" cy="17.9141" r="3.19018" fill="#C1C1C1"/>
<circle cx="37.0886" cy="32.1472" r="3.19018" fill="#C1C1C1"/>
<circle cx="37.0886" cy="46.3804" r="3.19018" fill="#C1C1C1"/>
<circle cx="37.0886" cy="60.6135" r="3.19018" fill="#C1C1C1"/>
<circle cx="36.5984" cy="75.3374" r="3.19018" fill="#C1C1C1"/>
<circle cx="36.5984" cy="90.0613" r="3.19018" fill="#C1C1C1"/>
<circle cx="36.5984" cy="103.804" r="3.19018" fill="#C1C1C1"/>
<circle cx="54.2664" cy="103.804" r="3.19018" fill="#C1C1C1"/>
<circle cx="54.2664" cy="90.0613" r="3.19018" fill="#C1C1C1"/>
<circle cx="54.2664" cy="75.3374" r="3.19018" fill="#C1C1C1"/>
<circle cx="53.7761" cy="60.6135" r="3.19018" fill="#C1C1C1"/>
<circle cx="54.2664" cy="46.8711" r="3.19018" fill="#C1C1C1"/>
<circle cx="54.2664" cy="32.1472" r="3.19018" fill="#C1C1C1"/>
<circle cx="54.2664" cy="18.405" r="3.19018" fill="#C1C1C1"/>
<circle cx="54.2664" cy="3.68091" r="3.19018" fill="#C1C1C1"/>
<circle cx="71.9343" cy="3.68091" r="3.19018" fill="#C1C1C1"/>
<circle cx="71.9343" cy="18.405" r="3.19018" fill="#C1C1C1"/>
<circle cx="71.9343" cy="32.1472" r="3.19018" fill="#C1C1C1"/>
<circle cx="70.9539" cy="46.8711" r="3.19018" fill="#C1C1C1"/>
<circle cx="70.9539" cy="60.6135" r="3.19018" fill="#C1C1C1"/>
<circle cx="71.9343" cy="75.3374" r="3.19018" fill="#C1C1C1"/>
<circle cx="71.9343" cy="90.0613" r="3.19018" fill="#C1C1C1"/>
<circle cx="70.9539" cy="103.804" r="3.19018" fill="#C1C1C1"/>
<circle cx="88.6218" cy="103.804" r="3.19018" fill="#C1C1C1"/>
<circle cx="105.309" cy="90.0613" r="3.19018" fill="#C1C1C1"/>
<circle cx="108.223" cy="100.528" r="3.19018" fill="#C1C1C1"/>
<circle cx="106.292" cy="75.3374" r="3.19018" fill="#C1C1C1"/>
<circle cx="105.309" cy="60.6135" r="3.19018" fill="#C1C1C1"/>
<circle cx="105.309" cy="45.8896" r="3.19018" fill="#C1C1C1"/>
<circle cx="105.309" cy="32.1472" r="3.19018" fill="#C1C1C1"/>
<circle cx="105.309" cy="18.405" r="3.19018" fill="#C1C1C1"/>
<circle cx="105.309" cy="3.68091" r="3.19018" fill="#C1C1C1"/>
<circle cx="122.977" cy="3.68091" r="3.19018" fill="#C1C1C1"/>
<circle cx="122.487" cy="17.9141" r="3.19018" fill="#C1C1C1"/>
<circle cx="122.977" cy="32.6379" r="3.19018" fill="#C1C1C1"/>
<circle cx="122.977" cy="46.3804" r="3.19018" fill="#C1C1C1"/>
<circle cx="122.487" cy="60.6135" r="3.19018" fill="#C1C1C1"/>
<circle cx="122.487" cy="74.3557" r="3.19018" fill="#C1C1C1"/>
<circle cx="121.997" cy="89.0798" r="3.19018" fill="#C1C1C1"/>
<circle cx="136.719" cy="72.3926" r="3.19018" fill="#C1C1C1"/>
<circle cx="146.223" cy="59.5276" r="3.19018" fill="#C1C1C1"/>
<circle cx="140.647" cy="45.8896" r="3.19018" fill="#C1C1C1"/>
<circle cx="140.155" cy="32.1472" r="3.19018" fill="#C1C1C1"/>
<circle cx="139.175" cy="18.405" r="3.19018" fill="#C1C1C1"/>
<circle cx="139.665" cy="3.68091" r="3.19018" fill="#C1C1C1"/>
<circle cx="156.352" cy="3.68091" r="3.19018" fill="#C1C1C1"/>
<circle cx="156.843" cy="17.9141" r="3.19018" fill="#C1C1C1"/>
<circle cx="156.352" cy="32.1472" r="3.19018" fill="#C1C1C1"/>
<circle cx="153.899" cy="46.8711" r="3.19018" fill="#C1C1C1"/>
<circle cx="88.6218" cy="90.0613" r="3.19018" fill="#C1C1C1"/>
<circle cx="88.6218" cy="74.8467" r="3.19018" fill="#C1C1C1"/>
<circle cx="88.6218" cy="60.6135" r="3.19018" fill="#C1C1C1"/>
<circle cx="88.6218" cy="46.8711" r="3.19018" fill="#C1C1C1"/>
<circle cx="88.6218" cy="32.6379" r="3.19018" fill="#C1C1C1"/>
<circle cx="88.6218" cy="18.405" r="3.19018" fill="#C1C1C1"/>
<circle cx="88.6218" cy="3.19018" r="3.19018" fill="#C1C1C1"/>
</svg>
